<?xml version="1.0" standalone="no"?>
<!DOCTYPE svg PUBLIC "-//W3C//DTD SVG 20010904//EN"
 "http://www.w3.org/TR/2001/REC-SVG-20010904/DTD/svg10.dtd">
<svg version="1.0" xmlns="http://www.w3.org/2000/svg"
 width="192.000000pt" height="192.000000pt" viewBox="0 0 192.000000 192.000000"
 preserveAspectRatio="xMidYMid meet">

<g transform="translate(0.000000,192.000000) scale(0.100000,-0.100000)"
fill="#000000" stroke="none">
<path d="M938 1646 c-26 -7 -53 -17 -60 -23 -7 -6 -30 -14 -51 -17 -53 -10
-118 -76 -148 -152 -19 -49 -23 -78 -23 -169 -1 -62 5 -134 13 -165 18 -70 12
-94 -38 -149 -47 -53 -59 -102 -37 -154 8 -19 26 -43 40 -52 24 -16 27 -15 92
24 37 23 76 41 86 41 29 0 10 -28 -37 -56 -24 -14 -49 -31 -55 -39 -22 -27 15
-28 57 -2 61 38 137 59 216 59 69 -1 145 -20 174 -43 13 -12 43 -6 43 9 0 4
-13 16 -30 25 -29 17 -41 47 -20 47 6 0 28 -9 49 -19 l38 -20 61 62 c34 35 62
68 62 74 0 7 -18 33 -40 58 -45 52 -48 73 -25 170 27 111 15 235 -31 326 -60
121 -216 197 -336 165z m208 -78 c45 -30 114 -116 114 -140 0 -6 -10 -3 -22 6
-13 8 -60 39 -105 66 -46 28 -83 56 -83 61 0 15 14 11 73 -25 65 -39 77 -31
17 11 -81 56 -77 52 -59 53 9 0 39 -15 65 -32z m-296 -23 c0 -12 -56 -54 -70
-54 -9 0 -3 11 18 29 30 28 52 38 52 25z m5 -55 c-3 -5 -11 -10 -16 -10 -6 0
-7 5 -4 10 3 6 11 10 16 10 6 0 7 -4 4 -10z m245 -83 c25 -11 54 -23 65 -27
58 -22 95 -42 95 -51 0 -32 -188 50 -254 111 -60 56 -59 70 2 24 26 -20 67
-46 92 -57z m-155 39 c14 -19 51 -51 81 -72 49 -34 53 -39 35 -46 -12 -4 -21
-15 -21 -24 0 -12 4 -14 18 -8 29 15 132 10 143 -7 11 -17 3 -93 -16 -165 -28
-97 -111 -183 -188 -191 -34 -4 -50 1 -89 26 -87 56 -138 154 -141 273 l-2 63
48 9 c34 7 58 6 80 -2 18 -7 35 -8 40 -3 15 15 -36 41 -81 41 l-44 0 32 36
c17 20 39 52 48 70 8 19 19 34 23 34 5 0 20 -15 34 -34z m-208 -296 c-3 -10
-8 -7 -17 12 -8 17 -10 37 -5 55 8 28 8 28 17 -12 5 -22 7 -46 5 -55z m523 55
c0 -21 -20 -68 -26 -62 -10 9 7 88 17 81 5 -3 9 -11 9 -19z m-340 -300 c14 -8
43 -14 65 -14 22 0 51 6 65 14 35 20 37 19 44 -24 3 -22 8 -46 11 -53 5 -12
-4 -13 -54 -4 -39 6 -82 6 -126 0 -65 -10 -66 -10 -60 10 3 12 8 36 12 54 6
36 8 37 43 17z"/>
<path d="M829 1247 c-1 -4 -2 -20 -3 -37 -1 -29 0 -29 39 -23 43 6 78 30 69
45 -4 6 -10 6 -17 -1 -16 -16 -48 -13 -69 6 -10 9 -19 13 -19 10z"/>
<path d="M1127 1235 c-7 -17 -39 -20 -68 -5 -15 8 -19 7 -19 -3 0 -21 20 -34
66 -41 41 -6 42 -5 40 23 -2 35 -11 48 -19 26z"/>
<path d="M970 1130 c0 -11 6 -20 13 -20 19 0 27 10 20 26 -8 21 -33 17 -33 -6z"/>
<path d="M950 1071 c0 -13 30 -22 51 -16 31 10 21 25 -16 25 -19 0 -35 -4 -35
-9z"/>
<path d="M924 1028 c-3 -4 4 -12 15 -17 35 -19 101 -11 101 13 0 12 -109 16
-116 4z"/>
<path d="M434 1486 c-3 -8 -4 -27 -2 -43 3 -25 7 -28 46 -31 l42 -3 0 45 0 46
-40 0 c-26 0 -43 -5 -46 -14z m59 -26 c-6 -21 -24 -23 -30 -3 -2 6 4 13 14 16
10 3 19 5 20 6 0 0 -1 -8 -4 -19z"/>
<path d="M1432 1458 c3 -43 3 -43 46 -46 l42 -3 0 45 0 46 -46 0 -45 0 3 -42z
m58 -3 c0 -8 -7 -15 -15 -15 -8 0 -15 7 -15 15 0 8 7 15 15 15 8 0 15 -7 15
-15z"/>
<path d="M432 1298 c3 -43 3 -43 43 -43 40 0 40 0 43 43 l3 42 -46 0 -46 0 3
-42z m58 -4 c0 -9 -5 -14 -12 -12 -18 6 -21 28 -4 28 9 0 16 -7 16 -16z"/>
<path d="M1432 1298 c3 -43 3 -43 43 -43 40 0 40 0 43 43 l3 42 -46 0 -46 0 3
-42z m58 -4 c0 -17 -22 -14 -28 4 -2 7 3 12 12 12 9 0 16 -7 16 -16z"/>
<path d="M434 1176 c-3 -8 -4 -27 -2 -43 3 -25 7 -28 46 -31 l43 -3 -3 43 c-3
42 -4 43 -41 46 -26 2 -39 -1 -43 -12z m60 -31 c-6 -16 -34 -21 -34 -7 0 13
11 22 26 22 8 0 11 -6 8 -15z"/>
<path d="M1437 1184 c-4 -4 -7 -25 -7 -46 l0 -38 46 0 45 0 -3 43 c-3 40 -4
42 -38 45 -20 2 -39 0 -43 -4z m53 -39 c0 -8 -7 -15 -15 -15 -16 0 -20 12 -8
23 11 12 23 8 23 -8z"/>
<path d="M1402 898 c-81 -84 -177 -184 -214 -223 -63 -66 -68 -69 -85 -53 -10
9 -30 20 -45 23 -33 8 -33 8 -12 40 15 23 15 27 0 50 -11 17 -26 25 -46 25
-20 0 -35 -8 -46 -25 -15 -23 -15 -27 1 -51 9 -14 15 -27 13 -28 -2 -1 -18 -8
-36 -16 -43 -17 -89 -71 -102 -121 -34 -126 86 -253 210 -221 41 10 41 10 24
-9 -23 -26 -102 -26 -153 0 -48 25 -95 79 -111 127 -12 35 -9 109 5 145 4 11
-15 34 -67 79 -86 73 -128 94 -174 85 -37 -6 -94 -49 -94 -70 0 -13 490 -487
511 -494 16 -5 288 281 289 304 0 11 54 74 130 150 135 137 154 169 106 181
-18 4 -37 -3 -68 -23 -24 -16 -50 -34 -58 -38 -24 -14 61 83 149 170 45 44 81
87 81 96 0 18 -30 49 -49 49 -6 0 -78 -69 -159 -152z m-386 -179 c10 -17 -13
-36 -27 -22 -12 12 -4 33 11 33 5 0 12 -5 16 -11z m264 -41 c0 -7 -18 -33 -40
-58 -36 -40 -39 -48 -33 -80 13 -58 8 -100 -13 -121 -20 -20 -20 -20 -16 40 5
74 -2 99 -23 81 -8 -7 -15 -19 -15 -28 0 -8 -8 -21 -17 -28 -17 -13 -17 -13 0
-14 28 0 21 -45 -13 -84 -73 -83 -196 -66 -237 33 -13 31 -13 36 1 47 20 14
20 24 1 24 -19 0 -19 3 4 49 35 68 106 96 174 67 20 -8 37 -19 37 -24 0 -4
-22 -33 -49 -63 l-49 -54 -30 29 c-29 27 -52 28 -52 3 0 -7 19 -29 42 -49 l43
-37 120 126 c66 69 124 132 128 139 10 17 37 18 37 2z"/>
<path d="M990 590 c0 -11 5 -20 10 -20 6 0 10 9 10 20 0 11 -4 20 -10 20 -5 0
-10 -9 -10 -20z"/>
<path d="M990 355 c0 -8 5 -15 10 -15 6 0 10 7 10 15 0 8 -4 15 -10 15 -5 0
-10 -7 -10 -15z"/>
<path d="M437 1023 c-4 -3 -7 -24 -7 -45 l0 -38 45 0 45 0 0 45 0 45 -38 0
c-21 0 -42 -3 -45 -7z m53 -38 c0 -8 -7 -15 -15 -15 -16 0 -20 12 -8 23 11 12
23 8 23 -8z"/>
<path d="M444 496 c-13 -33 0 -51 39 -54 36 -3 37 -3 37 32 0 34 -2 36 -35 36
-22 0 -38 -6 -41 -14z m46 -21 c0 -8 -4 -15 -10 -15 -5 0 -10 7 -10 15 0 8 5
15 10 15 6 0 10 -7 10 -15z"/>
<path d="M1434 496 c-13 -33 0 -51 39 -54 36 -3 37 -3 37 32 0 34 -2 36 -35
36 -22 0 -38 -6 -41 -14z m54 -17 c-2 -6 -8 -10 -13 -10 -5 0 -11 4 -13 10 -2
6 4 11 13 11 9 0 15 -5 13 -11z"/>
<path d="M463 412 c-31 -3 -33 -6 -33 -42 0 -34 4 -41 24 -46 47 -11 61 -2 64
42 3 46 -3 51 -55 46z m25 -43 c-2 -6 -8 -10 -13 -10 -5 0 -11 4 -13 10 -2 6
4 11 13 11 9 0 15 -5 13 -11z"/>
<path d="M1430 370 c0 -34 4 -41 24 -46 46 -11 66 3 66 47 l0 39 -45 0 -45 0
0 -40z m58 -1 c-2 -6 -8 -10 -13 -10 -5 0 -11 4 -13 10 -2 6 4 11 13 11 9 0
15 -5 13 -11z"/>
</g>
</svg>
